# xmcd
# Track frame offsets:
# 150
# 12944
# 24738
# 37192
# 51052
# 66585
# 83248
# 99847
# 112035
# 121420
# 133209
# 144935
#
# Disc length: 2099 seconds
# Revision: 2
# Processed by: cddbd v1.4PL0 Copyright (c) Steve Scherf et al.
# Submitted via: VisiTrax 2.9.5.181 - For more info visit www.synapsa.com
#
DISCID=a908310c
DTITLE=Lauderdale, Jim - The Other Sessions
DYEAR=2001
DGENRE=Alt Country
TTITLE0=If I Were You
TTITLE1=Just To Get To You
TTITLE2=I'd Follow You Anywhere
TTITLE3=What's On My Mind
TTITLE4=Merle World
TTITLE5=You'll Know When It's Right
TTITLE6=Honky Tonk Haze
TTITLE7=First Things First
TTITLE8=Oh My Goodness
TTITLE9=Diesel, Diesel, Diesel
TTITLE10=Born Believers
TTITLE11=It's Not Too Late
EXTD=Release date June 12, 2001
EXTT0=
EXTT1=
EXTT2=
EXTT3=
EXTT4=
EXTT5=
EXTT6=
EXTT7=
EXTT8=
EXTT9=
EXTT10=
EXTT11=
PLAYORDER=
